<svg width="1360" height="195" viewBox="0 0 1360 195" fill="none" xmlns="http://www.w3.org/2000/svg">
<path d="M1301.66 79.314H1357.51V192.306H1341.21V94.6487H1317.32C1315.7 127.578 1314.25 153.405 1312.15 166.802C1309.25 187.302 1299.72 193.921 1284.07 193.921V179.07C1291.17 179.07 1294.72 174.712 1296.5 163.09C1298.27 151.306 1299.72 125.964 1301.66 79.314Z" fill="white"/>
<path d="M1276.15 79.314V192.306H1259.84V94.8101H1227.88V192.306H1211.58V79.314H1276.15Z" fill="white"/>
<path d="M1125.43 192.306V79.314H1141.41V128.708C1141.41 136.779 1140.76 151.468 1139.63 161.314L1140.12 161.637C1142.22 156.149 1145.12 148.239 1148.19 141.621L1175.63 79.314H1192.26V192.306H1176.28V143.074C1176.28 134.519 1176.92 119.346 1177.73 109.983L1177.24 109.661C1175.15 115.472 1171.92 124.188 1169.17 130.483L1141.89 192.306H1125.43Z" fill="white"/>
<path d="M1106.21 79.314V192.306H1089.91V94.8101H1057.95V192.306H1041.64V79.314H1106.21Z" fill="white"/>
<path d="M934.907 79.314H990.758V192.306H974.454V94.6487H950.565C948.95 127.578 947.498 153.405 945.399 166.802C942.494 187.302 932.97 193.921 917.312 193.921V179.07C924.415 179.07 927.966 174.712 929.742 163.09C931.517 151.306 932.97 125.964 934.907 79.314Z" fill="#FDC300"/>
<path d="M900.635 192.306L895.308 169.547H865.446L860.28 192.306H843.17L871.579 79.314H889.174L917.584 192.306H900.635ZM868.997 154.373H891.918L884.816 124.027C883.202 116.602 881.426 105.787 880.619 99.8141H880.135C879.328 105.787 877.713 116.602 875.938 124.027L868.997 154.373Z" fill="#FDC300"/>
<path d="M848.716 79.314V94.8101H825.149V192.306H808.523V94.8101H785.117V79.314H848.716Z" fill="#FDC300"/>
<path d="M747.786 79.314C769.9 79.314 782.491 92.7116 782.491 115.794C782.491 139.523 769.9 152.598 747.786 152.598H734.227V192.306H717.924V79.314H747.786ZM747.625 137.102C759.892 137.102 765.865 130.322 765.865 115.794C765.865 101.912 759.892 94.8101 747.625 94.8101H734.227V137.102H747.625Z" fill="#FDC300"/>
<path d="M691.68 192.306L686.353 169.547H656.491L651.325 192.306H634.215L662.624 79.314H680.219L708.628 192.306H691.68ZM660.042 154.373H682.963L675.861 124.027C674.246 116.601 672.471 105.786 671.664 99.814H671.18C670.372 105.786 668.758 116.601 666.983 124.027L660.042 154.373Z" fill="#FDC300"/>
<path d="M618.186 134.196C627.871 138.231 633.843 147.755 633.843 160.023C633.843 180.2 620.93 192.306 601.237 192.306H568.953V79.314H599.622C617.863 79.314 629.646 91.0975 629.646 109.983C629.646 120.96 625.126 129.838 618.186 134.196ZM597.685 94.6487H585.256V127.094H598.17C608.016 127.094 613.02 121.444 613.02 110.468C613.02 99.814 608.178 94.6487 597.685 94.6487ZM599.138 176.972C611.083 176.972 617.217 171.484 617.217 160.023C617.217 148.401 609.953 142.428 598.493 142.428H585.256V176.972H599.138Z" fill="#FDC300"/>
<path d="M542.801 192.306L515.198 142.913L507.773 154.05V192.306H491.631V79.314H507.773V128.385L515.198 115.149L537.797 79.314H556.844L524.56 128.546L561.525 192.306H542.801Z" fill="#FDC300"/>
<path d="M407.927 68.3374C396.628 68.3374 388.88 61.235 388.395 48.9673H399.533C399.856 54.6169 402.923 57.5224 407.766 57.5224C412.77 57.5224 415.837 54.6169 416.159 48.9673H427.297C426.813 61.3965 419.065 68.3374 407.927 68.3374ZM374.029 192.306V79.3138H390.01V128.708C390.01 136.779 389.364 151.468 388.234 161.314L388.718 161.637C390.817 156.149 393.722 148.239 396.789 141.621L424.23 79.3138H440.856V192.306H424.876V143.074C424.876 134.519 425.522 119.345 426.329 109.983L425.844 109.66C423.746 115.471 420.518 124.188 417.774 130.483L390.494 192.306H374.029Z" fill="#FDC300"/>
<path d="M323.292 194.405C301.662 194.405 288.749 180.039 288.749 156.472V115.149C288.749 91.582 301.662 77.2158 323.292 77.2158C344.922 77.2158 357.836 91.582 357.836 115.149V156.472C357.836 180.039 344.922 194.405 323.292 194.405ZM323.292 178.425C334.915 178.425 341.048 170.677 341.048 156.472V115.149C341.048 100.944 334.915 93.1962 323.292 93.1962C311.509 93.1962 305.536 100.944 305.536 115.149V156.472C305.536 170.677 311.509 178.425 323.292 178.425Z" fill="#FDC300"/>
<path d="M216.693 79.314H272.544V192.306H256.241V94.6487H232.351C230.737 127.578 229.284 153.405 227.185 166.802C224.28 187.302 214.756 193.921 199.099 193.921V179.07C206.201 179.07 209.752 174.712 211.528 163.09C213.303 151.306 214.756 125.964 216.693 79.314Z" fill="#FDC300"/>
<path d="M124.247 192.306V79.314H140.227V128.708C140.227 136.779 139.582 151.468 138.452 161.314L138.936 161.637C141.035 156.149 143.94 148.239 147.007 141.621L174.448 79.314H191.074V192.306H175.094V143.074C175.094 134.519 175.739 119.346 176.546 109.983L176.062 109.661C173.964 115.472 170.735 124.188 167.991 130.483L140.712 192.306H124.247Z" fill="#FDC300"/>
<path d="M98.4649 192.306L71.8309 144.365L66.3427 152.921V192.306H50.5238V152.921L45.0356 144.365L18.4016 192.306H0L35.9962 130.645L2.7441 79.314H21.4686L42.7757 114.18L50.5238 128.224V79.314H66.3427V128.385L74.575 113.696L95.3979 79.314H114.122L80.8703 130.645L116.866 192.306H98.4649Z" fill="#FDC300"/>
<path fill-rule="evenodd" clip-rule="evenodd" d="M1329.11 47.8275C1338.47 47.8275 1346.05 40.2437 1346.05 30.8886C1346.05 21.5335 1338.47 13.9497 1329.11 13.9497C1319.76 13.9497 1312.17 21.5335 1312.17 30.8886C1312.17 40.2437 1319.76 47.8275 1329.11 47.8275ZM1329.11 61.7772C1346.17 61.7772 1360 47.9479 1360 30.8886C1360 13.8293 1346.17 0 1329.11 0C1312.05 0 1298.22 13.8293 1298.22 30.8886C1298.22 47.9479 1312.05 61.7772 1329.11 61.7772Z" fill="white"/>
</svg>
