<svg width="76" height="46" viewBox="0 0 76 46" fill="none" xmlns="http://www.w3.org/2000/svg">
<path d="M0 13.4922H20.9236V16.5749H18.4721V35.1273H14.9373V16.5749H6.04334V35.1273H2.50856V16.5749H0V13.4922Z" fill="white"/>
<path d="M20.9861 18.0874H24.5209V32.0998L35.6953 21.058V18.0874H39.2301V39.7225H35.6953V25.4299L24.5209 36.4156V39.7225H20.9861V18.0874Z" fill="white"/>
<path d="M39.277 13.4917H60.2006V16.5744H57.7491V35.1268H54.2143V16.5744H45.2633V35.1268H41.7285V16.5744H39.22V13.4917H39.277Z" fill="white"/>
<path d="M60.2621 18.0874H75.0284V31.0349V45.1594H71.3226V21.2262H63.968V23.7484C63.968 31.147 63.6259 36.808 62.4856 40.283C61.1173 44.2626 58.4948 46.0001 55.074 46.0001C53.3066 46.0001 51.8243 45.3836 50.627 44.2065C49.8288 43.4218 49.6008 42.8053 48.8596 41.348L51.8813 38.7137C52.8505 41.2919 54.2188 42.3008 55.5871 42.3008C58.4948 42.3008 60.2051 35.7991 60.2051 23.8045V18.0874H60.2621Z" fill="#FDC300"/>
<path fill-rule="evenodd" clip-rule="evenodd" d="M67.7328 3.44385C65.3184 3.44385 63.4114 5.36045 63.4114 7.66318C63.4114 9.96592 65.3184 11.8825 67.7328 11.8825C70.1472 11.8825 72.0542 9.96592 72.0542 7.66318C72.0542 5.36045 70.1472 3.44385 67.7328 3.44385ZM59.9675 7.66318C59.9675 3.40339 63.4719 0 67.7328 0C71.9937 0 75.4981 3.40339 75.4981 7.66318C75.4981 11.923 71.9937 15.3264 67.7328 15.3264C63.4719 15.3264 59.9675 11.923 59.9675 7.66318Z" fill="#FDC300"/>
</svg>
