<svg width="18" height="18" viewBox="0 0 18 18" fill="none" xmlns="http://www.w3.org/2000/svg">
<path d="M17.4466 14.1755C17.6569 14.3865 17.8146 14.644 17.9068 14.9273C17.999 15.2106 18.0232 15.5116 17.9775 15.806C17.9318 16.1004 17.8173 16.3798 17.6435 16.6217C17.4696 16.8637 17.2413 17.0613 16.9768 17.1985C15.4658 18.0061 13.7054 18.2125 12.0486 17.7763C7.65125 16.6693 1.33069 10.3487 0.223717 5.95145C-0.212481 4.29463 -0.00608507 2.53415 0.801504 1.02316C0.938748 0.758743 1.13633 0.530368 1.37826 0.356523C1.62018 0.182678 1.89964 0.0682488 2.19402 0.0225019C2.48839 -0.023245 2.78941 0.00097606 3.07268 0.093204C3.35595 0.185432 3.61352 0.343074 3.82454 0.553366L5.701 2.42892C5.9716 2.69681 6.15471 3.04038 6.2262 3.41438C6.29769 3.78839 6.25421 4.17527 6.10149 4.52408C5.93436 4.91542 5.69706 5.2729 5.4013 5.57885C3.25575 7.72441 10.2765 14.7451 12.4211 12.5987C12.7271 12.3019 13.0849 12.0637 13.4768 11.8958C13.8256 11.7428 14.2125 11.6992 14.5866 11.7707C14.9606 11.8422 15.3042 12.0255 15.572 12.2963L17.4466 14.1755Z" fill="#282525"/>
</svg>
